<?xml version="1.0" encoding="UTF-8"?>
<svg version="1.1" xmlns="http://www.w3.org/2000/svg" width="785" height="169">
<path d="M0 0 C0.88171875 -0.01611328 1.7634375 -0.03222656 2.671875 -0.04882812 C14.73052558 -0.05766878 25.62681463 4.12504128 34.25 12.6875 C35.03375 13.55375 35.8175 14.42 36.625 15.3125 C37.12 8.8775 37.12 8.8775 37.625 2.3125 C47.195 2.3125 56.765 2.3125 66.625 2.3125 C66.625 41.5825 66.625 80.8525 66.625 121.3125 C57.055 121.3125 47.485 121.3125 37.625 121.3125 C37.295 116.6925 36.965 112.0725 36.625 107.3125 C35.3875 108.50875 34.15 109.705 32.875 110.9375 C20.52658199 121.92252801 6.92163702 124.22674166 -9.00048828 123.50341797 C-21.15400241 122.52623845 -31.22284342 115.26961965 -39.4296875 106.6640625 C-53.67088979 89.44879387 -55.64443005 70.81325529 -54.375 49.3125 C-52.34669449 32.71667341 -43.00202504 19.04115125 -30.25 8.62109375 C-20.82835419 2.04557011 -11.28707026 -0.04089518 0 0 Z M-18.8046875 37.125 C-25.66028737 47.18528856 -26.57838387 58.47733312 -25.375 70.3125 C-23.6511735 79.36258911 -19.64160422 87.08262889 -12.390625 92.90625 C-4.93519063 97.87653958 2.78515857 99.24175557 11.625 98.3125 C20.74247486 96.32825616 28.09738657 91.74623218 33.22265625 83.8515625 C39.1900703 72.54305192 40.4569859 60.91634104 37 48.5 C33.89719763 39.49536375 28.85309816 33.16768292 20.625 28.3125 C6.89651828 21.6249124 -9.353943 25.14372829 -18.8046875 37.125 Z " fill="#5B152E" transform="translate(191.375,45.6875)"/>
<path d="M0 0 C9.24 0 18.48 0 28 0 C28.33 31.35 28.66 62.7 29 95 C35.97125 87.245 42.9425 79.49 50.125 71.5 C74.58416804 45.70255685 74.58416804 45.70255685 90.27557373 44.70822144 C98.32497507 44.66856783 106.24802354 45.89172188 114 48 C112.49544495 51.18621303 111.11047622 53.0049478 108.375 55.25 C105.44647906 57.72391299 102.6842771 60.26267394 100 63 C96.79970478 66.25029983 93.45775424 69.24724245 90 72.21875 C87.91662922 74.0742521 85.95718793 76.01223101 84 78 C80.80612534 81.24377895 77.47277473 84.23637671 74.01953125 87.19921875 C71.13467336 89.77159687 68.44994203 92.5253134 65.76171875 95.30078125 C64 97 64 97 61 99 C61.58687103 102.10233331 62.45625952 103.86896984 64.5546875 106.21484375 C65.0815918 106.81200195 65.60849609 107.40916016 66.15136719 108.02441406 C67.00456543 108.9713916 67.00456543 108.9713916 67.875 109.9375 C69.06576041 111.28457645 70.25585346 112.63224307 71.4453125 113.98046875 C72.04375977 114.65513184 72.64220703 115.32979492 73.25878906 116.02490234 C75.79432874 118.90102629 78.27764452 121.81953811 80.75 124.75 C81.20109131 125.28367187 81.65218262 125.81734375 82.11694336 126.3671875 C84.92389057 129.69727317 87.68984476 133.05842668 90.4375 136.4375 C93.91073414 140.70746169 97.46826291 144.89473233 101.0625 149.0625 C115 165.2429939 115 165.2429939 115 167 C80.99691641 169.42574522 80.99691641 169.42574522 74.21875 164.234375 C71.5545463 161.41066911 69.64173036 158.23765724 67.91503906 154.77294922 C66.63557427 152.29390084 64.93427067 150.30075745 63.125 148.1875 C62.20654297 147.02541016 62.20654297 147.02541016 61.26953125 145.83984375 C58.15625936 141.94423504 54.98467261 138.09770511 51.8125 134.25 C51.21775879 133.5283667 50.62301758 132.8067334 50.01025391 132.06323242 C46.68506756 128.03243501 43.34890164 124.01111383 40 120 C39.54109375 120.39832031 39.0821875 120.79664062 38.609375 121.20703125 C37.99578125 121.73683594 37.3821875 122.26664062 36.75 122.8125 C36.14671875 123.33457031 35.5434375 123.85664062 34.921875 124.39453125 C33 126 33 126 30.91796875 127.0625 C27.91916581 130.09184065 28.39670178 133.57095793 28.390625 137.60546875 C28.37408875 138.44467361 28.35755249 139.28387848 28.34051514 140.14851379 C28.29193977 142.82824958 28.27064372 145.50741757 28.25 148.1875 C28.22184819 150.00458601 28.19192187 151.82164545 28.16015625 153.63867188 C28.08283624 158.09271145 28.04240892 162.54494345 28 167 C18.76 167 9.52 167 0 167 C0 111.89 0 56.78 0 0 Z " fill="#5B152D" transform="translate(516,0)"/>
<path d="M0 0 C11.45709729 8.98340583 18.13396522 23.41937798 19.90625 37.59765625 C19.90625 44.19765625 19.90625 50.79765625 19.90625 57.59765625 C-8.80375 57.59765625 -37.51375 57.59765625 -67.09375 57.59765625 C-63.54346443 69.43194148 -60.80729986 75.88864677 -50.08984375 82.15625 C-38.96746523 87.50717265 -27.83081586 87.8318898 -16.0703125 84.65625 C-10.52412453 82.68378682 -5.27255961 79.77646586 -1.09375 75.59765625 C1.57163894 75.78549695 2.63610128 76.30694537 4.46191406 78.27172852 C4.94370117 78.97869873 5.42548828 79.68566895 5.921875 80.4140625 C6.45039063 81.17783203 6.97890625 81.94160156 7.5234375 82.72851562 C8.06226563 83.53095703 8.60109375 84.33339844 9.15625 85.16015625 C9.71054687 85.96646484 10.26484375 86.77277344 10.8359375 87.60351562 C12.20284296 89.59495548 13.55897637 91.59290548 14.90625 93.59765625 C11.01876586 102.1294116 -0.73257711 106.37364467 -9.09375 109.59765625 C-9.92390625 109.91863281 -10.7540625 110.23960937 -11.609375 110.5703125 C-28.43895204 115.86031113 -48.28911589 113.74573914 -64.09375 106.59765625 C-78.79355069 98.86604837 -89.02584169 86.48898684 -94.09375 70.59765625 C-98.99423848 54.46804846 -96.48620729 35.78833359 -89.73046875 20.61328125 C-81.77347026 5.95265396 -69.8799839 -4.05861678 -54.03515625 -9.44140625 C-34.62670937 -14.62668419 -16.62256012 -11.13339381 0 0 Z M-62.09375 25.59765625 C-64.95133243 29.88009384 -66.07778336 33.51782305 -67.09375 38.59765625 C-47.62375 38.59765625 -28.15375 38.59765625 -8.09375 38.59765625 C-9.13711582 30.25072965 -10.7115526 25.64578479 -16.8359375 19.98828125 C-30.82489126 9.41884952 -50.91773316 13.05543294 -62.09375 25.59765625 Z " fill="#5B152D" transform="translate(472.09375,56.40234375)"/>
<path d="M0 0 C40.26 0 80.52 0 122 0 C122 8.91 122 17.82 122 27 C106.49 27 90.98 27 75 27 C75 70.23 75 113.46 75 158 C65.1 158 55.2 158 45 158 C45 114.77 45 71.54 45 27 C30.15 27 15.3 27 0 27 C0 18.09 0 9.18 0 0 Z " fill="#5C162E" transform="translate(0,10)"/>
<path d="M0 0 C2.30078125 2.0859375 2.30078125 2.0859375 3.30078125 5.0859375 C2.72577881 5.69852417 2.72577881 5.69852417 2.13916016 6.32348633 C0.39914308 8.17973296 -1.33756427 10.03904478 -3.07421875 11.8984375 C-3.6775 12.54103516 -4.28078125 13.18363281 -4.90234375 13.84570312 C-5.48242188 14.46767578 -6.0625 15.08964844 -6.66015625 15.73046875 C-7.19431152 16.30128174 -7.7284668 16.87209473 -8.27880859 17.46020508 C-9.89501428 19.23909354 -9.89501428 19.23909354 -11.69921875 22.0859375 C-14.87754896 20.62013224 -17.52265438 18.80070376 -20.32421875 16.7109375 C-29.69284841 10.16928501 -38.14273945 7.56606878 -49.69921875 9.0859375 C-53.47123454 10.63675442 -55.2883339 11.52097083 -57.69921875 14.8359375 C-58.98287459 19.00781899 -58.3556865 21.09535609 -56.69921875 25.0859375 C-51.15970074 31.86210632 -39.77016396 33.70497092 -31.69921875 36.0234375 C-18.89371002 39.74542916 -7.69571572 44.35361246 0.67578125 55.1484375 C5.06457615 63.86724879 5.2616582 74.934136 2.30078125 84.0859375 C-1.98639827 94.65753679 -9.49877298 100.95854676 -19.57421875 105.859375 C-35.30594457 112.03407738 -55.33633277 111.03359586 -70.68359375 104.38671875 C-78.26088902 100.93814486 -85.90374333 97.20027768 -90.69921875 90.0859375 C-90.69921875 89.0959375 -90.69921875 88.1059375 -90.69921875 87.0859375 C-88.50390625 85 -88.50390625 85 -85.57421875 82.7109375 C-84.57132813 81.92074219 -83.5684375 81.13054687 -82.53515625 80.31640625 C-81.59929688 79.58035156 -80.6634375 78.84429687 -79.69921875 78.0859375 C-78.52765017 77.07073365 -77.35966053 76.05134152 -76.19921875 75.0234375 C-73.69921875 73.0859375 -73.69921875 73.0859375 -70.69921875 73.0859375 C-70.69921875 73.7459375 -70.69921875 74.4059375 -70.69921875 75.0859375 C-70.18359375 75.3128125 -69.66796875 75.5396875 -69.13671875 75.7734375 C-67.03823637 76.90338955 -65.38585239 78.07643199 -63.51171875 79.5234375 C-59.53369528 82.42354493 -55.41485165 83.80148892 -50.69921875 85.0859375 C-49.89484375 85.3128125 -49.09046875 85.5396875 -48.26171875 85.7734375 C-41.09442548 86.64749766 -35.05203179 86.77056906 -28.69921875 83.0859375 C-25.61495635 80.23892605 -24.79524123 78.75809483 -24.19921875 74.5859375 C-24.8107072 70.30551837 -25.45132239 68.94717953 -28.69921875 66.0859375 C-33.81787041 63.27928186 -39.40675553 61.87959176 -45.02148438 60.43408203 C-59.59199603 56.64933293 -74.84244164 51.09603521 -83.57421875 38.0859375 C-88.10166544 30.0981191 -88.84121806 21.61609722 -87.26953125 12.62890625 C-84.65675386 3.41967237 -78.30584626 -3.24294577 -70.453125 -8.41015625 C-47.48508604 -20.95298604 -19.98508516 -15.18970156 0 0 Z " fill="#5B152D" transform="translate(780.69921875,59.9140625)"/>
<path d="M0 0 C0.48210937 0.32226562 0.96421875 0.64453125 1.4609375 0.9765625 C-0.5183936 11.41303557 -2.87733119 21.69444308 -5.5390625 31.9765625 C-6.07273437 31.8321875 -6.60640625 31.6878125 -7.15625 31.5390625 C-17.16502343 29.04552725 -25.27247029 29.07071957 -34.5390625 33.9765625 C-39.82017313 37.26309057 -43.1728611 41.8619532 -45.13169861 47.76141357 C-45.69185787 50.80742775 -45.70539498 53.75954208 -45.74438477 56.85644531 C-45.75923416 57.88144638 -45.75923416 57.88144638 -45.77438354 58.92715454 C-45.80588294 61.17796404 -45.83071002 63.42879461 -45.85546875 65.6796875 C-45.87604827 67.24339333 -45.89704501 68.80709372 -45.91844177 70.37078857 C-45.97355936 74.48066801 -46.02301398 78.59059678 -46.07128906 82.70056152 C-46.12157952 86.89677304 -46.17722616 91.09291315 -46.23242188 95.2890625 C-46.33987727 103.51817036 -46.44085496 111.74733908 -46.5390625 119.9765625 C-56.1090625 119.9765625 -65.6790625 119.9765625 -75.5390625 119.9765625 C-75.5390625 80.7065625 -75.5390625 41.4365625 -75.5390625 0.9765625 C-66.2990625 0.9765625 -57.0590625 0.9765625 -47.5390625 0.9765625 C-47.0440625 9.3915625 -47.0440625 9.3915625 -46.5390625 17.9765625 C-45.7553125 16.8009375 -44.9715625 15.6253125 -44.1640625 14.4140625 C-40.37680676 9.39105899 -35.921947 6.15955558 -30.5390625 2.9765625 C-29.80171875 2.53957031 -29.064375 2.10257813 -28.3046875 1.65234375 C-20.65432705 -2.10688509 -7.9966502 -3.22326516 0 0 Z " fill="#5C152D" transform="translate(364.5390625,47.0234375)"/>
<path d="M0 0 C10.56 0 21.12 0 32 0 C28.29337013 12.56135678 24.44126908 25.07324959 20.51159668 37.56634521 C19.96097336 39.31767972 19.41141733 41.06935014 18.86291504 42.8213501 C18.08237613 45.31290784 17.29765947 47.80311047 16.51171875 50.29296875 C16.15423805 51.43699913 16.15423805 51.43699913 15.78953552 52.60414124 C14.11450051 57.88549949 14.11450051 57.88549949 13 59 C10.13732433 59.07325168 7.299281 59.09238205 4.4375 59.0625 C3.63119141 59.05798828 2.82488281 59.05347656 1.99414062 59.04882812 C-0.00393756 59.03700518 -2.00197783 59.01906914 -4 59 C-4.10899811 51.12553506 -3.83512495 43.38816489 -3.125 35.546875 C-2.99182373 34.00752289 -2.99182373 34.00752289 -2.85595703 32.43707275 C-2.57546064 29.20760538 -2.2878647 25.97881804 -2 22.75 C-1.80681853 20.5404059 -1.61410611 18.33077073 -1.421875 16.12109375 C-0.95419538 10.74680983 -0.47688802 5.37350612 0 0 Z " fill="#5B152D" transform="translate(646,9)"/>
</svg>
